<?xml version="1.0" encoding="UTF-8" standalone="no"?>
<!-- Generator: Adobe Illustrator 14.0.0, SVG Export Plug-In . SVG Version: 6.00 Build 43363)  -->

<svg
   xmlns:dc="http://purl.org/dc/elements/1.1/"
   xmlns:cc="http://creativecommons.org/ns#"
   xmlns:rdf="http://www.w3.org/1999/02/22-rdf-syntax-ns#"
   xmlns:svg="http://www.w3.org/2000/svg"
   xmlns="http://www.w3.org/2000/svg"
   xmlns:xlink="http://www.w3.org/1999/xlink"
   xmlns:sodipodi="http://sodipodi.sourceforge.net/DTD/sodipodi-0.dtd"
   xmlns:inkscape="http://www.inkscape.org/namespaces/inkscape"
   version="1.1"
   id="Layer_1"
   x="0px"
   y="0px"
   width="438.71405"
   height="200.59729"
   viewBox="0 0 438.71406 200.59728"
   enable-background="new 0 0 935.433 1388.977"
   xml:space="preserve"
   inkscape:version="0.48.4 r9939"
   sodipodi:docname="agiles-latinoamerica.svg"
   inkscape:export-filename="/home/od/Escritorio/Agiles2014.png"
   inkscape:export-xdpi="90"
   inkscape:export-ydpi="90"><metadata
     id="metadata1331"><rdf:RDF><cc:Work
         rdf:about=""><dc:format>image/svg+xml</dc:format><dc:type
           rdf:resource="http://purl.org/dc/dcmitype/StillImage" /><dc:title /></cc:Work></rdf:RDF></metadata><defs
     id="defs1329"><linearGradient
       id="linearGradient5592"><stop
         style="stop-color:#b7ff92;stop-opacity:1;"
         offset="0"
         id="stop5594" /><stop
         style="stop-color:#0a6800;stop-opacity:1;"
         offset="1"
         id="stop5596" /></linearGradient><linearGradient
       id="linearGradient5559"><stop
         style="stop-color:#1d6a9e;stop-opacity:1;"
         offset="0"
         id="stop5561" /><stop
         id="stop5567"
         offset="0.77777779"
         style="stop-color:#122a77;stop-opacity:1;" /><stop
         style="stop-color:#091a54;stop-opacity:1;"
         offset="1"
         id="stop5563" /></linearGradient><linearGradient
       id="linearGradient3816-6-76-5-08-3-6-1-9"><stop
         style="stop-color:#c6ff00;stop-opacity:1;"
         offset="0"
         id="stop3818-0-7-43-7-3-0-7-0" /><stop
         id="stop3826-3-83-12-7-4-6-4-06"
         offset="0.42606705"
         style="stop-color:#65a606;stop-opacity:1;" /><stop
         style="stop-color:#52910b;stop-opacity:1;"
         offset="0.53766513"
         id="stop3916-3-8-1-6-0-1" /><stop
         style="stop-color:#1a2014;stop-opacity:1;"
         offset="1"
         id="stop3820-6-64-3-38-1-18-94-3" /></linearGradient><linearGradient
       id="linearGradient4325-1-5-7-8-9-8-3"><stop
         style="stop-color:#7b6f6f;stop-opacity:0.92035401;"
         offset="0"
         id="stop4327-3-4-1-7-6-8-4" /><stop
         id="stop4333-8-2-0-4-3-2-46"
         offset="0.47222221"
         style="stop-color:#cdbcb9;stop-opacity:0.96078432;" /><stop
         style="stop-color:#7b6f6f;stop-opacity:0.92156863;"
         offset="1"
         id="stop4329-93-0-7-2-7-4-0" /></linearGradient><linearGradient
       id="linearGradient4325-1-49-7-8-5-6"><stop
         style="stop-color:#7b6f6f;stop-opacity:0.92035401;"
         offset="0"
         id="stop4327-3-6-9-2-51-1" /><stop
         id="stop4333-8-5-3-91-7-8"
         offset="0.47222221"
         style="stop-color:#dcd4d3;stop-opacity:0.96078432;" /><stop
         style="stop-color:#bfb6b6;stop-opacity:0.95575219;"
         offset="0.7361111"
         id="stop4640-1-1-3-11-4" /><stop
         style="stop-color:#7b6f6f;stop-opacity:0.92156863;"
         offset="1"
         id="stop4329-93-09-9-5-5-9" /></linearGradient><linearGradient
       id="linearGradient4325-683-6-8-2-3"><stop
         style="stop-color:#7b6f6f;stop-opacity:0.92035401;"
         offset="0"
         id="stop4327-4-5-4-76-7" /><stop
         id="stop4333-84-0-0-1-8"
         offset="0.47222221"
         style="stop-color:#ccc6c5;stop-opacity:0.96078432;" /><stop
         style="stop-color:#c5bdbd;stop-opacity:0.94117647;"
         offset="0.7361111"
         id="stop4642-99-2-7-4-8" /><stop
         style="stop-color:#7b6f6f;stop-opacity:0.92156863;"
         offset="1"
         id="stop4329-2-8-6-2-29" /></linearGradient><linearGradient
       id="linearGradient4100-7-5-0-6-3-3"><stop
         style="stop-color:#7b6f6f;stop-opacity:0.92156863;"
         offset="0"
         id="stop4102-9-3-2-1-2-5" /><stop
         id="stop4648-3-4-5-21-9"
         offset="0.25"
         style="stop-color:#e3dddd;stop-opacity:0.98039216;" /><stop
         id="stop4644-37-8-4-68-8"
         offset="0.5"
         style="stop-color:#c9c9c9;stop-opacity:0.96078432;" /><stop
         style="stop-color:#7b6f6f;stop-opacity:0.92156863;"
         offset="1"
         id="stop4104-3-43-6-2-5-4" /></linearGradient><linearGradient
       id="linearGradient3816-6-76-0-0-97-7-76"><stop
         style="stop-color:#c6ff00;stop-opacity:1;"
         offset="0"
         id="stop3818-0-7-88-9-3-6-3" /><stop
         id="stop3826-3-83-06-0-7-1-6"
         offset="0.50180268"
         style="stop-color:#65a606;stop-opacity:1;" /><stop
         style="stop-color:#52910b;stop-opacity:1;"
         offset="0.68170726"
         id="stop3916-8-0-2-8-1" /><stop
         style="stop-color:#275602;stop-opacity:1;"
         offset="1"
         id="stop3820-6-64-19-6-6-92-5" /></linearGradient><linearGradient
       id="linearGradient4100-97-3-1-7-2"><stop
         style="stop-color:#d8d0d0;stop-opacity:1;"
         offset="0"
         id="stop4102-22-8-6-9-0" /><stop
         id="stop4646-8-9-5-54-9"
         offset="0.5"
         style="stop-color:#fbebeb;stop-opacity:1;" /><stop
         style="stop-color:#7b6f6f;stop-opacity:0.92156863;"
         offset="1"
         id="stop4104-289-3-7-3-7" /></linearGradient><linearGradient
       id="linearGradient3816-6-76-1-78-4-4-12-2"><stop
         style="stop-color:#c6ff00;stop-opacity:1;"
         offset="0"
         id="stop3818-0-7-68-1-6-1-3-6" /><stop
         id="stop3826-3-83-57-58-0-2-3-0"
         offset="0.50180268"
         style="stop-color:#65a606;stop-opacity:1;" /><stop
         style="stop-color:#487f0a;stop-opacity:1;"
         offset="0.68170726"
         id="stop3916-6-6-6-0-4-1" /><stop
         style="stop-color:#132504;stop-opacity:1;"
         offset="1"
         id="stop3820-6-64-1-12-6-01-1-6" /></linearGradient><linearGradient
       id="linearGradient4100-7-8-2-8-6-1-7"><stop
         style="stop-color:#584c4c;stop-opacity:1;"
         offset="0"
         id="stop4102-9-6-5-4-0-3-5" /><stop
         id="stop4650-86-9-7-8-4"
         offset="0.3611111"
         style="stop-color:#f3efee;stop-opacity:1;" /><stop
         style="stop-color:#8e8686;stop-opacity:1;"
         offset="1"
         id="stop4104-3-5-2-6-1-7-1" /></linearGradient><radialGradient
       inkscape:collect="always"
       xlink:href="#linearGradient3816-6-76-27-5-7-7-42-0"
       id="radialGradient3317-2"
       gradientUnits="userSpaceOnUse"
       gradientTransform="matrix(-0.69107625,-0.80937828,0.99860843,-0.6600118,2183.2032,1428.567)"
       cx="1432.7272"
       cy="-56.884163"
       fx="1432.7272"
       fy="-56.884163"
       r="310.5" /><linearGradient
       id="linearGradient3816-6-76-27-5-7-7-42-0"><stop
         style="stop-color:#c6ff00;stop-opacity:1;"
         offset="0"
         id="stop3818-0-7-6-3-8-7-7-0" /><stop
         id="stop3826-3-83-1-9-8-7-79-1"
         offset="0.50180268"
         style="stop-color:#65a606;stop-opacity:1;" /><stop
         style="stop-color:#52910b;stop-opacity:1;"
         offset="0.68170726"
         id="stop3916-4-2-2-3-3-4" /><stop
         style="stop-color:#1d3c04;stop-opacity:1;"
         offset="1"
         id="stop3820-6-64-2-4-9-3-1-6" /></linearGradient><clipPath
       clipPathUnits="userSpaceOnUse"
       id="clipPath36"><path
         inkscape:connector-curvature="0"
         d="m 30.035,71.037 612,0 0,792 -612,0 0,-792 z"
         id="path38" /></clipPath><clipPath
       clipPathUnits="userSpaceOnUse"
       id="clipPath44"><path
         inkscape:connector-curvature="0"
         d="m 0,809.602 842.472,0 L 842.472,0 0,0 0,809.602 z"
         id="path46" /></clipPath><clipPath
       clipPathUnits="userSpaceOnUse"
       id="clipPath36-7"><path
         inkscape:connector-curvature="0"
         d="m 30.035,71.037 612,0 0,792 -612,0 0,-792 z"
         id="path38-9" /></clipPath><clipPath
       clipPathUnits="userSpaceOnUse"
       id="clipPath44-3"><path
         inkscape:connector-curvature="0"
         d="m 0,809.602 842.472,0 L 842.472,0 0,0 0,809.602 z"
         id="path46-1" /></clipPath><clipPath
       clipPathUnits="userSpaceOnUse"
       id="clipPath320"><path
         inkscape:connector-curvature="0"
         d="m 0,1190.55 841.89,0 L 841.89,0 0,0 0,1190.55 z"
         id="path322" /></clipPath><linearGradient
       x1="0"
       y1="0"
       x2="1"
       y2="0"
       gradientUnits="userSpaceOnUse"
       gradientTransform="matrix(-664.3244,172.00757,-172.00757,-664.3244,265.17578,1079.0391)"
       spreadMethod="pad"
       id="linearGradient304"><stop
         style="stop-opacity:1;stop-color:#384b70"
         offset="0"
         id="stop306" /><stop
         style="stop-opacity:1;stop-color:#3d68b0"
         offset="0.539155"
         id="stop308" /><stop
         style="stop-opacity:1;stop-color:#3d68b0"
         offset="0.539155"
         id="stop310" /><stop
         style="stop-opacity:1;stop-color:#3d68b0"
         offset="1"
         id="stop312" /></linearGradient><linearGradient
       x1="0"
       y1="0"
       x2="1"
       y2="0"
       gradientUnits="userSpaceOnUse"
       gradientTransform="matrix(-529.39362,116.66785,-116.66785,-529.39362,1008.6934,957.38135)"
       spreadMethod="pad"
       id="linearGradient282"><stop
         style="stop-opacity:1;stop-color:#3d68b0"
         offset="0"
         id="stop284" /><stop
         style="stop-opacity:1;stop-color:#384b70"
         offset="0.700061"
         id="stop286" /><stop
         style="stop-opacity:1;stop-color:#384b70"
         offset="1"
         id="stop288" /></linearGradient><clipPath
       clipPathUnits="userSpaceOnUse"
       id="clipPath202"><path
         inkscape:connector-curvature="0"
         d="m 0,1190.55 841.89,0 L 841.89,0 0,0 0,1190.55 z"
         id="path204" /></clipPath><clipPath
       clipPathUnits="userSpaceOnUse"
       id="clipPath16"><path
         inkscape:connector-curvature="0"
         d="m 0,1190.55 841.89,0 L 841.89,0 0,0 0,1190.55 z"
         id="path18" /></clipPath><clipPath
       clipPathUnits="userSpaceOnUse"
       id="clipPath16-4"><path
         inkscape:connector-curvature="0"
         d="m 0,1190.55 841.89,0 L 841.89,0 0,0 0,1190.55 z"
         id="path18-0" /></clipPath><clipPath
       clipPathUnits="userSpaceOnUse"
       id="clipPath16-0"><path
         inkscape:connector-curvature="0"
         d="m 0,1190.55 841.89,0 L 841.89,0 0,0 0,1190.55 z"
         id="path18-9" /></clipPath><clipPath
       clipPathUnits="userSpaceOnUse"
       id="clipPath320-9"><path
         inkscape:connector-curvature="0"
         d="m 0,1190.55 841.89,0 L 841.89,0 0,0 0,1190.55 z"
         id="path322-8" /></clipPath><linearGradient
       x1="0"
       y1="0"
       x2="1"
       y2="0"
       gradientUnits="userSpaceOnUse"
       gradientTransform="matrix(-529.39362,116.66785,-116.66785,-529.39362,1008.6934,957.38135)"
       spreadMethod="pad"
       id="linearGradient282-1"><stop
         style="stop-opacity:1;stop-color:#3d68b0"
         offset="0"
         id="stop284-8" /><stop
         style="stop-opacity:1;stop-color:#384b70"
         offset="0.700061"
         id="stop286-2" /><stop
         style="stop-opacity:1;stop-color:#384b70"
         offset="1"
         id="stop288-6" /></linearGradient><clipPath
       clipPathUnits="userSpaceOnUse"
       id="clipPath202-6"><path
         inkscape:connector-curvature="0"
         d="m 0,1190.55 841.89,0 L 841.89,0 0,0 0,1190.55 z"
         id="path204-0" /></clipPath><clipPath
       clipPathUnits="userSpaceOnUse"
       id="clipPath16-3"><path
         inkscape:connector-curvature="0"
         d="m 0,1190.55 841.89,0 L 841.89,0 0,0 0,1190.55 z"
         id="path18-8" /></clipPath><clipPath
       clipPathUnits="userSpaceOnUse"
       id="clipPath16-0-3"><path
         inkscape:connector-curvature="0"
         d="m 0,1190.55 841.89,0 L 841.89,0 0,0 0,1190.55 z"
         id="path18-9-9" /></clipPath><clipPath
       clipPathUnits="userSpaceOnUse"
       id="clipPath16-0-3-6"><path
         inkscape:connector-curvature="0"
         d="m 0,1190.55 841.89,0 L 841.89,0 0,0 0,1190.55 z"
         id="path18-9-9-6" /></clipPath><radialGradient
       inkscape:collect="always"
       xlink:href="#linearGradient5559-9"
       id="radialGradient5575-0"
       cx="99.21875"
       cy="260.0708"
       fx="99.21875"
       fy="260.0708"
       r="133.59375"
       gradientUnits="userSpaceOnUse" /><linearGradient
       id="linearGradient5559-9"><stop
         style="stop-color:#1d6a9e;stop-opacity:1;"
         offset="0"
         id="stop5561-8" /><stop
         id="stop5567-9"
         offset="0.77777779"
         style="stop-color:#122a77;stop-opacity:1;" /><stop
         style="stop-color:#091a54;stop-opacity:1;"
         offset="1"
         id="stop5563-1" /></linearGradient><clipPath
       clipPathUnits="userSpaceOnUse"
       id="clipPath16-4-3"><path
         inkscape:connector-curvature="0"
         d="m 0,1190.55 841.89,0 L 841.89,0 0,0 0,1190.55 z"
         id="path18-0-3" /></clipPath><clipPath
       clipPathUnits="userSpaceOnUse"
       id="clipPath16-0-7"><path
         inkscape:connector-curvature="0"
         d="m 0,1190.55 841.89,0 L 841.89,0 0,0 0,1190.55 z"
         id="path18-9-0" /></clipPath><clipPath
       clipPathUnits="userSpaceOnUse"
       id="clipPath16-9"><path
         inkscape:connector-curvature="0"
         d="m 0,1190.55 841.89,0 L 841.89,0 0,0 0,1190.55 z"
         id="path18-1" /></clipPath><clipPath
       clipPathUnits="userSpaceOnUse"
       id="clipPath16-0-3-6-2"><path
         inkscape:connector-curvature="0"
         d="m 0,1190.55 841.89,0 L 841.89,0 0,0 0,1190.55 z"
         id="path18-9-9-6-9" /></clipPath><radialGradient
       inkscape:collect="always"
       xlink:href="#linearGradient5559-8"
       id="radialGradient5872-7"
       gradientUnits="userSpaceOnUse"
       gradientTransform="matrix(0.7078095,0,0,0.2602799,283.07671,413.8387)"
       cx="1394.3262"
       cy="496.25473"
       fx="1394.3262"
       fy="496.25473"
       r="425.5" /><linearGradient
       id="linearGradient5559-8"><stop
         style="stop-color:#1d6a9e;stop-opacity:1;"
         offset="0"
         id="stop5561-85" /><stop
         id="stop5567-97"
         offset="0.77777779"
         style="stop-color:#122a77;stop-opacity:1;" /><stop
         style="stop-color:#091a54;stop-opacity:1;"
         offset="1"
         id="stop5563-13" /></linearGradient><clipPath
       clipPathUnits="userSpaceOnUse"
       id="clipPath16-9-7"><path
         inkscape:connector-curvature="0"
         d="m 0,1190.55 841.89,0 L 841.89,0 0,0 0,1190.55 z"
         id="path18-1-1" /></clipPath><radialGradient
       r="133.59375"
       fy="260.0708"
       fx="99.21875"
       cy="260.0708"
       cx="99.21875"
       gradientUnits="userSpaceOnUse"
       id="radialGradient5890-1"
       xlink:href="#linearGradient5559-9-0"
       inkscape:collect="always" /><linearGradient
       id="linearGradient5559-9-0"><stop
         style="stop-color:#1d6a9e;stop-opacity:1;"
         offset="0"
         id="stop5561-8-0" /><stop
         id="stop5567-9-1"
         offset="0.77777779"
         style="stop-color:#122a77;stop-opacity:1;" /><stop
         style="stop-color:#091a54;stop-opacity:1;"
         offset="1"
         id="stop5563-1-3" /></linearGradient><clipPath
       id="clipPath2462"><path
         d="M 0,0 0,0 0,0 0,0 z"
         id="path2464"
         inkscape:connector-curvature="0" /></clipPath><clipPath
       id="clipPath2556"><path
         d="M 0,0 0,0 0,0 0,0 z"
         id="path2558"
         inkscape:connector-curvature="0" /></clipPath><clipPath
       id="clipPath11392"><path
         d="M 0,0 0,0 0,0 0,0 z"
         id="path11394"
         inkscape:connector-curvature="0" /></clipPath><clipPath
       id="clipPath8976"><path
         d="M 0,0 0,0 0,0 0,0 z"
         id="path8978"
         inkscape:connector-curvature="0" /></clipPath><linearGradient
       id="linearGradient4609"><stop
         id="stop4611"
         style="stop-color: rgb(0, 0, 0); stop-opacity: 0;"
         offset="0" /><stop
         id="stop4623"
         style="stop-color: rgb(0, 0, 0); stop-opacity: 0.0235294;"
         offset="0.49269524" /><stop
         id="stop4621"
         style="stop-color: rgb(0, 0, 0); stop-opacity: 0.0352941;"
         offset="0.5708732" /><stop
         id="stop4619"
         style="stop-color: rgb(0, 0, 0); stop-opacity: 0.0666667;"
         offset="0.63645512" /><stop
         id="stop4617"
         style="stop-color: rgb(0, 0, 0); stop-opacity: 0.148936;"
         offset="0.69579047" /><stop
         id="stop4625"
         style="stop-color: rgb(0, 0, 0); stop-opacity: 0.212766;"
         offset="0.73030394" /><stop
         id="stop4613"
         style="stop-color: rgb(0, 0, 0); stop-opacity: 0.546099;"
         offset="1" /></linearGradient><clipPath
       clipPathUnits="userSpaceOnUse"
       id="clipPath16-4-0"><path
         inkscape:connector-curvature="0"
         d="m 0,1190.55 841.89,0 L 841.89,0 0,0 0,1190.55 z"
         id="path18-0-7" /></clipPath><radialGradient
       inkscape:collect="always"
       xlink:href="#linearGradient5592"
       id="radialGradient5598"
       cx="25.899174"
       cy="-5.9174333"
       fx="25.899174"
       fy="-5.9174333"
       r="97.260162"
       gradientTransform="matrix(1,0,0,0.89226173,0,-0.63753402)"
       gradientUnits="userSpaceOnUse" /><clipPath
       clipPathUnits="userSpaceOnUse"
       id="clipPath16-4-4"><path
         inkscape:connector-curvature="0"
         d="m 0,1190.55 841.89,0 L 841.89,0 0,0 0,1190.55 z"
         id="path18-0-1" /></clipPath><radialGradient
       inkscape:collect="always"
       xlink:href="#linearGradient5592"
       id="radialGradient6066"
       gradientUnits="userSpaceOnUse"
       gradientTransform="matrix(0.82567342,-0.25324036,0.25033056,0.87288932,2.9852544,3.8539454)"
       cx="18.752367"
       cy="1.4778284"
       fx="18.752367"
       fy="1.4778284"
       r="97.260162" /><radialGradient
       inkscape:collect="always"
       xlink:href="#linearGradient5592"
       id="radialGradient6068"
       gradientUnits="userSpaceOnUse"
       gradientTransform="matrix(1,0,0,0.89226173,0,-0.63753402)"
       cx="25.899174"
       cy="-5.9174333"
       fx="25.899174"
       fy="-5.9174333"
       r="97.260162" /><clipPath
       clipPathUnits="userSpaceOnUse"
       id="clipPath16-4-4-3"><path
         inkscape:connector-curvature="0"
         d="m 0,1190.55 841.89,0 L 841.89,0 0,0 0,1190.55 z"
         id="path18-0-1-1" /></clipPath><radialGradient
       inkscape:collect="always"
       xlink:href="#linearGradient5592-5"
       id="radialGradient6068-1"
       gradientUnits="userSpaceOnUse"
       gradientTransform="matrix(1,0,0,0.89226173,0,-0.63753402)"
       cx="25.899174"
       cy="-5.9174333"
       fx="25.899174"
       fy="-5.9174333"
       r="97.260162" /><linearGradient
       id="linearGradient5592-5"><stop
         style="stop-color:#b7ff92;stop-opacity:1;"
         offset="0"
         id="stop5594-0" /><stop
         style="stop-color:#0a6800;stop-opacity:1;"
         offset="1"
         id="stop5596-4" /></linearGradient><radialGradient
       inkscape:collect="always"
       xlink:href="#linearGradient5592-5"
       id="radialGradient6066-3"
       gradientUnits="userSpaceOnUse"
       gradientTransform="matrix(0.82567342,-0.25324036,0.25033056,0.87288932,2.9852544,3.8539454)"
       cx="18.752367"
       cy="1.4778284"
       fx="18.752367"
       fy="1.4778284"
       r="97.260162" /><linearGradient
       id="linearGradient6335"><stop
         style="stop-color:#b7ff92;stop-opacity:1;"
         offset="0"
         id="stop6337" /><stop
         style="stop-color:#0a6800;stop-opacity:1;"
         offset="1"
         id="stop6339" /></linearGradient><clipPath
       id="clipPath2462-5"><path
         inkscape:connector-curvature="0"
         d="M 0,0 0,0 0,0 0,0 z"
         id="path2464-8" /></clipPath><clipPath
       id="clipPath2556-3"><path
         inkscape:connector-curvature="0"
         d="M 0,0 0,0 0,0 0,0 z"
         id="path2558-0" /></clipPath><clipPath
       id="clipPath11392-1"><path
         inkscape:connector-curvature="0"
         d="M 0,0 0,0 0,0 0,0 z"
         id="path11394-7" /></clipPath><clipPath
       id="clipPath6347"><path
         inkscape:connector-curvature="0"
         d="M 0,0 0,0 0,0 0,0 z"
         id="path6349" /></clipPath><clipPath
       id="clipPath6351"><path
         inkscape:connector-curvature="0"
         d="M 0,0 0,0 0,0 0,0 z"
         id="path6353" /></clipPath><clipPath
       id="clipPath8976-5"><path
         inkscape:connector-curvature="0"
         d="M 0,0 0,0 0,0 0,0 z"
         id="path8978-1" /></clipPath><clipPath
       clipPathUnits="userSpaceOnUse"
       id="clipPath16-4-4-31"><path
         inkscape:connector-curvature="0"
         d="m 0,1190.55 841.89,0 L 841.89,0 0,0 0,1190.55 z"
         id="path18-0-1-4" /></clipPath><radialGradient
       inkscape:collect="always"
       xlink:href="#linearGradient5592-9"
       id="radialGradient6068-4"
       gradientUnits="userSpaceOnUse"
       gradientTransform="matrix(1,0,0,0.89226173,0,-0.63753402)"
       cx="25.899174"
       cy="-5.9174333"
       fx="25.899174"
       fy="-5.9174333"
       r="97.260162" /><linearGradient
       id="linearGradient5592-9"><stop
         style="stop-color:#b7ff92;stop-opacity:1;"
         offset="0"
         id="stop5594-3" /><stop
         style="stop-color:#0a6800;stop-opacity:1;"
         offset="1"
         id="stop5596-46" /></linearGradient><radialGradient
       inkscape:collect="always"
       xlink:href="#linearGradient5592-9"
       id="radialGradient6066-4"
       gradientUnits="userSpaceOnUse"
       gradientTransform="matrix(0.82567342,-0.25324036,0.25033056,0.87288932,2.9852544,3.8539454)"
       cx="18.752367"
       cy="1.4778284"
       fx="18.752367"
       fy="1.4778284"
       r="97.260162" /><linearGradient
       id="linearGradient7216"><stop
         style="stop-color:#b7ff92;stop-opacity:1;"
         offset="0"
         id="stop7218" /><stop
         style="stop-color:#0a6800;stop-opacity:1;"
         offset="1"
         id="stop7220" /></linearGradient><clipPath
       id="clipPath2462-50"><path
         inkscape:connector-curvature="0"
         d="M 0,0 0,0 0,0 0,0 z"
         id="path2464-1" /></clipPath><clipPath
       id="clipPath2556-36"><path
         inkscape:connector-curvature="0"
         d="M 0,0 0,0 0,0 0,0 z"
         id="path2558-9" /></clipPath><clipPath
       id="clipPath11392-2"><path
         inkscape:connector-curvature="0"
         d="M 0,0 0,0 0,0 0,0 z"
         id="path11394-5" /></clipPath><clipPath
       id="clipPath7228"><path
         inkscape:connector-curvature="0"
         d="M 0,0 0,0 0,0 0,0 z"
         id="path7230" /></clipPath><clipPath
       id="clipPath7232"><path
         inkscape:connector-curvature="0"
         d="M 0,0 0,0 0,0 0,0 z"
         id="path7234" /></clipPath><clipPath
       id="clipPath8976-7"><path
         inkscape:connector-curvature="0"
         d="M 0,0 0,0 0,0 0,0 z"
         id="path8978-5" /></clipPath><clipPath
       clipPathUnits="userSpaceOnUse"
       id="clipPath16-4-4-4"><path
         inkscape:connector-curvature="0"
         d="m 0,1190.55 841.89,0 L 841.89,0 0,0 0,1190.55 z"
         id="path18-0-1-12" /></clipPath><radialGradient
       inkscape:collect="always"
       xlink:href="#linearGradient5592-8"
       id="radialGradient6068-9"
       gradientUnits="userSpaceOnUse"
       gradientTransform="matrix(1,0,0,0.89226173,0,-0.63753402)"
       cx="25.899174"
       cy="-5.9174333"
       fx="25.899174"
       fy="-5.9174333"
       r="97.260162" /><linearGradient
       id="linearGradient5592-8"><stop
         style="stop-color:#b7ff92;stop-opacity:1;"
         offset="0"
         id="stop5594-1" /><stop
         style="stop-color:#0a6800;stop-opacity:1;"
         offset="1"
         id="stop5596-7" /></linearGradient><radialGradient
       inkscape:collect="always"
       xlink:href="#linearGradient5592-8"
       id="radialGradient6066-33"
       gradientUnits="userSpaceOnUse"
       gradientTransform="matrix(0.82567342,-0.25324036,0.25033056,0.87288932,2.9852544,3.8539454)"
       cx="18.752367"
       cy="1.4778284"
       fx="18.752367"
       fy="1.4778284"
       r="97.260162" /><linearGradient
       id="linearGradient8001"><stop
         style="stop-color:#b7ff92;stop-opacity:1;"
         offset="0"
         id="stop8003" /><stop
         style="stop-color:#0a6800;stop-opacity:1;"
         offset="1"
         id="stop8005" /></linearGradient><clipPath
       id="clipPath2462-0"><path
         inkscape:connector-curvature="0"
         d="M 0,0 0,0 0,0 0,0 z"
         id="path2464-2" /></clipPath><clipPath
       id="clipPath2556-8"><path
         inkscape:connector-curvature="0"
         d="M 0,0 0,0 0,0 0,0 z"
         id="path2558-94" /></clipPath><clipPath
       id="clipPath11392-7"><path
         inkscape:connector-curvature="0"
         d="M 0,0 0,0 0,0 0,0 z"
         id="path11394-58" /></clipPath><clipPath
       id="clipPath8013"><path
         inkscape:connector-curvature="0"
         d="M 0,0 0,0 0,0 0,0 z"
         id="path8015" /></clipPath><clipPath
       id="clipPath8017"><path
         inkscape:connector-curvature="0"
         d="M 0,0 0,0 0,0 0,0 z"
         id="path8019" /></clipPath><clipPath
       id="clipPath8976-2"><path
         inkscape:connector-curvature="0"
         d="M 0,0 0,0 0,0 0,0 z"
         id="path8978-8" /></clipPath><clipPath
       clipPathUnits="userSpaceOnUse"
       id="clipPath16-4-4-3-7"><path
         inkscape:connector-curvature="0"
         d="m 0,1190.55 841.89,0 L 841.89,0 0,0 0,1190.55 z"
         id="path18-0-1-1-5" /></clipPath><radialGradient
       inkscape:collect="always"
       xlink:href="#linearGradient5592-5-8"
       id="radialGradient6068-1-9"
       gradientUnits="userSpaceOnUse"
       gradientTransform="matrix(1,0,0,0.89226173,0,-0.63753402)"
       cx="25.899174"
       cy="-5.9174333"
       fx="25.899174"
       fy="-5.9174333"
       r="97.260162" /><linearGradient
       id="linearGradient5592-5-8"><stop
         style="stop-color:#b7ff92;stop-opacity:1;"
         offset="0"
         id="stop5594-0-1" /><stop
         style="stop-color:#0a6800;stop-opacity:1;"
         offset="1"
         id="stop5596-4-0" /></linearGradient><radialGradient
       inkscape:collect="always"
       xlink:href="#linearGradient5592-5-8"
       id="radialGradient6066-3-7"
       gradientUnits="userSpaceOnUse"
       gradientTransform="matrix(0.82567342,-0.25324036,0.25033056,0.87288932,2.9852544,3.8539454)"
       cx="18.752367"
       cy="1.4778284"
       fx="18.752367"
       fy="1.4778284"
       r="97.260162" /><linearGradient
       id="linearGradient8766"><stop
         style="stop-color:#b7ff92;stop-opacity:1;"
         offset="0"
         id="stop8768" /><stop
         style="stop-color:#0a6800;stop-opacity:1;"
         offset="1"
         id="stop8770" /></linearGradient><clipPath
       id="clipPath2462-5-9"><path
         inkscape:connector-curvature="0"
         d="M 0,0 0,0 0,0 0,0 z"
         id="path2464-8-0" /></clipPath><clipPath
       id="clipPath2556-3-8"><path
         inkscape:connector-curvature="0"
         d="M 0,0 0,0 0,0 0,0 z"
         id="path2558-0-6" /></clipPath><clipPath
       id="clipPath11392-1-7"><path
         inkscape:connector-curvature="0"
         d="M 0,0 0,0 0,0 0,0 z"
         id="path11394-7-2" /></clipPath><clipPath
       id="clipPath8778"><path
         inkscape:connector-curvature="0"
         d="M 0,0 0,0 0,0 0,0 z"
         id="path8780" /></clipPath><clipPath
       id="clipPath8782"><path
         inkscape:connector-curvature="0"
         d="M 0,0 0,0 0,0 0,0 z"
         id="path8784" /></clipPath><clipPath
       id="clipPath8976-5-3"><path
         inkscape:connector-curvature="0"
         d="M 0,0 0,0 0,0 0,0 z"
         id="path8978-1-3" /></clipPath><clipPath
       clipPathUnits="userSpaceOnUse"
       id="clipPath16-4-4-3-3"><path
         inkscape:connector-curvature="0"
         d="m 0,1190.55 841.89,0 L 841.89,0 0,0 0,1190.55 z"
         id="path18-0-1-1-57" /></clipPath></defs><sodipodi:namedview
     pagecolor="#ffffff"
     bordercolor="#666666"
     borderopacity="1"
     objecttolerance="10"
     gridtolerance="10"
     guidetolerance="10"
     inkscape:pageopacity="0"
     inkscape:pageshadow="2"
     inkscape:window-width="1366"
     inkscape:window-height="723"
     id="namedview1327"
     showgrid="false"
     inkscape:zoom="0.36480487"
     inkscape:cx="-453.57028"
     inkscape:cy="288.19139"
     inkscape:window-x="0"
     inkscape:window-y="30"
     inkscape:window-maximized="1"
     inkscape:current-layer="Layer_1"
     showguides="true"
     inkscape:guide-bbox="true"
     fit-margin-top="0"
     fit-margin-left="0"
     fit-margin-right="0"
     fit-margin-bottom="0"><inkscape:grid
       type="xygrid"
       id="grid3603"
       empspacing="5"
       visible="true"
       enabled="true"
       snapvisiblegridlinesonly="true"
       originx="2391.5853px"
       originy="-465.14157px" /></sodipodi:namedview><flowRoot
     xml:space="preserve"
     id="flowRoot4969"
     style="font-size:40px;font-style:normal;font-weight:normal;line-height:125%;letter-spacing:0px;word-spacing:0px;fill:#000000;fill-opacity:1;stroke:none;font-family:Sans"
     transform="translate(2391.5853,-723.2382)"><flowRegion
       id="flowRegion4971"><rect
         id="rect4973"
         width="370"
         height="296"
         x="846"
         y="-87.022949" /></flowRegion><flowPara
       id="flowPara4975" /></flowRoot><path
     style="fill:#000000"
     d=""
     id="path5547"
     inkscape:connector-curvature="0" /><text
     xml:space="preserve"
     style="font-size:40px;font-style:normal;font-weight:normal;line-height:125%;letter-spacing:0px;word-spacing:0px;fill:#000000;fill-opacity:1;stroke:none;font-family:Sans"
     x="2426.9409"
     y="544.20496"
     id="text5595"
     sodipodi:linespacing="125%"><tspan
       sodipodi:role="line"
       id="tspan5597"
       x="2426.9409"
       y="544.20496" /></text>
<g
     id="g20-9-2"
     transform="matrix(1.2297429,0,0,-1.2297429,131.35255,99.702442)"
     style="fill:#273c83;fill-opacity:1"><path
       inkscape:connector-curvature="0"
       d="m 0,0 c -6.011,0 -10.304,-2.514 -12.882,-7.533 0.528,-0.246 1.073,-0.483 1.634,-0.715 9.056,-3.717 20.498,-4.735 24.316,-3.524 1.094,0 -4.162,-0.338 -3.105,-0.146 0.186,1.312 0.279,2.426 0.279,3.338 C 10.242,-2.861 6.827,0 0,0"
       style="fill:#273c83;fill-opacity:1;fill-rule:nonzero;stroke:none"
       id="path22-16-28" /></g><g
     id="g24-8-14"
     transform="matrix(1.2297429,0,0,-1.2297429,129.83812,86.512832)"><path
       inkscape:connector-curvature="0"
       d="M 0,0 -1.914,3.603 15.066,13.665 17.835,8.32 0,0 z m 32.608,10.625 c 0,18.703 -11.035,33.868 -24.643,33.868 -13.611,0 18.335,-42.514 -24.644,-33.868 -58.729,14.933 -29.105,-11.839 -1.48,-26.113 3.554,6.702 9.84,10.057 18.857,10.057 5.055,0 9.288,-1.137 12.698,-3.408 3.412,-2.273 5.115,-5.485 5.115,-9.635 0,-0.313 -0.038,-0.845 -0.118,-1.597 8.398,5.4 14.215,17.111 14.215,30.696"
       style="fill:#394a88;fill-opacity:1;fill-rule:nonzero;stroke:none"
       id="path26-5-2" /></g><g
     id="g28-51-6"
     transform="matrix(1.2297429,0,0,-1.2297429,129.83812,86.512832)"
     style="fill:#273c83;fill-opacity:1"><path
       inkscape:connector-curvature="0"
       d="M 0,0 -1.914,3.603 15.066,13.665 17.835,8.32 0,0 z m 32.608,10.625 c 0,18.703 -11.035,33.868 -24.643,33.868 -13.611,0 18.335,-42.514 -24.644,-33.868 -58.729,14.933 -29.105,-11.839 -1.48,-26.113 3.554,6.702 9.84,10.057 18.857,10.057 5.055,0 9.288,-1.137 12.698,-3.408 3.412,-2.273 5.115,-5.485 5.115,-9.635 0,-0.313 -0.038,-0.845 -0.118,-1.597 8.398,5.4 14.215,17.111 14.215,30.696 z"
       style="fill:#273c83;fill-opacity:1;stroke:#ffffff;stroke-width:2.67499995;stroke-linecap:butt;stroke-linejoin:miter;stroke-miterlimit:4;stroke-opacity:1;stroke-dasharray:none"
       id="path30-55-8" /></g><g
     id="g32-5-2"
     transform="matrix(1.2297429,0,0,-1.2297429,134.28402,138.48618)"><path
       inkscape:connector-curvature="0"
       d="m 0,0 c -3.397,-3.359 -7.065,-5.036 -11.004,-5.036 -2.501,0 -4.451,0.672 -5.848,2.022 -1.396,1.349 -2.092,3.14 -2.092,5.371 0,7.215 6.438,10.826 19.32,10.826 1.94,0 3.969,-0.119 6.088,-0.352 C 5.549,7.634 3.395,3.356 0,0 m 7.36,17.913 c -3.573,0.233 -5.833,0.349 -6.775,0.349 -10.484,0 -17.645,-1.526 -21.481,-4.583 -3.838,-3.052 -5.757,-6.74 -5.757,-11.057 0,-3.849 1.337,-7.051 4.011,-9.607 2.678,-2.558 6.118,-3.834 10.315,-3.834 6.714,0 12.333,3.345 16.857,10.037 -0.497,-2.047 -0.746,-4.228 -0.746,-6.54 0,-0.594 0.013,-1.351 0.047,-2.268 l 6.829,0 c -0.084,1.006 -0.129,1.643 -0.129,1.912 0,1.779 0.359,4.554 1.075,8.323 1.776,11.166 2.833,18.347 3.171,21.548 C 12.541,20.753 10.123,19.765 7.579,19.307 7.519,18.865 7.444,18.399 7.36,17.913"
       style="fill:#464646;fill-opacity:1;fill-rule:nonzero;stroke:none"
       id="path34-46-0" /></g><g
     id="g36-5-8"
     transform="matrix(1.2297429,0,0,-1.2297429,186.98395,124.74295)"><path
       inkscape:connector-curvature="0"
       d="m 0,0 c 3.409,0 6.175,1.021 8.295,3.066 2.121,2.042 3.18,4.788 3.18,8.234 0,2.897 -0.976,5.231 -2.926,7 -1.951,1.768 -4.433,2.654 -7.445,2.654 -3.257,0 -5.921,-1.037 -7.998,-3.112 -2.073,-2.074 -3.109,-4.713 -3.109,-7.914 0,-2.896 0.884,-5.277 2.651,-7.137 C -5.586,0.93 -3.138,0 0,0 m -13.361,-19.125 c -3.961,-1.194 -5.941,-3.34 -5.941,-6.433 0,-2.573 1.637,-4.457 4.917,-5.651 3.278,-1.196 7.389,-1.793 12.336,-1.793 9.102,0 13.655,2.514 13.655,7.54 0,1.441 -0.629,2.691 -1.892,3.747 -1.259,1.058 -4.806,1.616 -10.637,1.678 -5.194,0.061 -9.339,0.364 -12.438,0.912 m 37.583,47.937 c -1.754,0.086 -3.014,0.131 -3.784,0.131 -4.244,0 -6.898,-1.965 -7.961,-5.9 4.046,-3.138 6.07,-6.944 6.07,-11.421 0,-4.632 -1.681,-8.6 -5.037,-11.904 -3.362,-3.305 -7.761,-4.957 -13.202,-4.957 -3.04,0 -6.017,0.639 -8.936,1.918 -3.886,-1.747 -5.827,-3.819 -5.827,-6.208 0,-1.259 0.589,-2.088 1.771,-2.485 1.184,-0.398 3.896,-0.628 8.141,-0.689 6.425,-0.092 10.986,-0.374 13.684,-0.845 2.697,-0.47 4.916,-1.641 6.661,-3.512 1.743,-1.871 2.615,-4.2 2.615,-6.998 0,-4.408 -1.772,-7.874 -5.315,-10.399 -3.542,-2.521 -9.039,-3.784 -16.488,-3.784 -15.325,0 -22.987,3.689 -22.987,11.066 0,4.633 2.861,7.985 8.583,10.06 -2.404,1.338 -3.606,3.32 -3.606,5.939 0,4.355 3.159,7.78 9.48,10.277 -3.44,2.557 -5.158,6.135 -5.158,10.736 0,4.629 1.718,8.513 5.16,11.649 3.44,3.138 7.888,4.707 13.34,4.707 2.102,0 4.569,-0.411 7.402,-1.232 1.309,4.157 2.999,6.908 5.069,8.251 2.072,1.345 4.568,2.017 7.493,2.017 1.126,0 2.404,-0.131 3.836,-0.391 l -1.004,-6.026 z"
       style="fill:#464646;fill-opacity:1;fill-rule:nonzero;stroke:none"
       id="path38-1-15-97" /></g><g
     id="g40-4-97"
     transform="matrix(1.2297429,0,0,-1.2297429,240.43578,83.674462)"><path
       inkscape:connector-curvature="0"
       d="m 0,0 -9.299,0 1.441,8.513 9.3,0 L 0,0 z m -10.112,-53.826 -7.175,0 7.728,46.361 7.176,0 -7.729,-46.361 z"
       style="fill:#464646;fill-opacity:1;fill-rule:nonzero;stroke:none"
       id="path42-32-35" /></g><g
     id="g44-13-1"
     transform="matrix(1.2297429,0,0,-1.2297429,267.03978,73.205418)"><path
       inkscape:connector-curvature="0"
       d="m 0,0 -10.343,-62.339 -7.128,0 L -7.124,0 0,0 z"
       style="fill:#464646;fill-opacity:1;fill-rule:nonzero;stroke:none"
       id="path46-7-2-2" /></g><g
     id="g48-9-59"
     transform="matrix(1.2297429,0,0,-1.2297429,282.5557,115.72403)"><path
       inkscape:connector-curvature="0"
       d="m 0,0 26.065,0 c 0.087,0.975 0.132,1.707 0.132,2.194 0,3.749 -1.056,6.743 -3.174,8.983 -2.117,2.239 -4.864,3.36 -8.247,3.36 -3.837,0 -7.094,-1.441 -9.767,-4.32 C 2.333,7.336 0.664,3.932 0,0 m 30.912,-16.843 c -4.744,-8.154 -11.406,-12.231 -19.979,-12.231 -5.808,0 -10.544,1.904 -14.205,5.709 -3.667,3.807 -5.499,8.956 -5.499,15.444 0,7.979 2.281,14.633 6.839,19.963 4.56,5.329 10.211,7.996 16.961,7.996 3.309,0 6.404,-0.716 9.274,-2.149 2.875,-1.432 5.105,-3.674 6.703,-6.72 C 32.603,8.123 33.4,4.42 33.4,0.063 c 0,-1.555 -0.132,-3.321 -0.393,-5.301 l -33.921,0 c -0.173,-1.459 -0.261,-2.658 -0.261,-3.599 0,-4.222 1.102,-7.646 3.303,-10.274 2.2,-2.626 5.188,-3.939 8.96,-3.939 2.593,0 4.939,0.589 7.034,1.767 2.096,1.176 4.351,3.599 6.767,7.27 l 6.023,-2.83 z"
       style="fill:#464646;fill-opacity:1;fill-rule:nonzero;stroke:none"
       id="path50-0-2" /></g><g
     id="g52-0-7"
     transform="matrix(1.2297429,0,0,-1.2297429,375.66666,105.38828)"><path
       inkscape:connector-curvature="0"
       d="m 0,0 -5.891,-2.511 c -2.031,5.15 -6.057,7.726 -12.086,7.726 -2.755,0 -4.967,-0.694 -6.632,-2.086 -1.666,-1.393 -2.5,-3.045 -2.5,-4.961 0,-1.946 0.641,-3.373 1.922,-4.287 1.281,-0.912 3.8,-1.797 7.56,-2.65 l 2.861,-0.685 c 3.215,-0.733 5.698,-1.533 7.454,-2.404 1.756,-0.872 3.237,-2.264 4.448,-4.175 1.213,-1.912 1.817,-4.091 1.817,-6.536 0,-4.129 -1.616,-7.646 -4.847,-10.553 -3.232,-2.906 -7.64,-4.357 -13.225,-4.357 -4.004,0 -7.761,0.782 -11.264,2.346 -3.507,1.564 -6.519,5.011 -9.036,10.348 l 6.679,2.237 c 2.175,-6.113 6.791,-9.168 13.854,-9.168 3.377,0 5.996,0.763 7.852,2.29 1.855,1.527 2.784,3.436 2.784,5.727 0,1.802 -0.542,3.229 -1.625,4.282 -1.081,1.055 -3.53,2.038 -7.35,2.948 l -2.41,0.592 c -3.546,0.849 -6.267,1.722 -8.157,2.618 -1.891,0.898 -3.473,2.259 -4.743,4.083 -1.272,1.823 -1.905,3.907 -1.905,6.248 0,3.828 1.472,7.102 4.427,9.824 2.953,2.721 6.992,4.082 12.11,4.082 C -8.663,10.978 -2.695,7.317 0,0"
       style="fill:#464646;fill-opacity:1;fill-rule:nonzero;stroke:none"
       id="path54-32-8" /></g><g
     id="g88-4-0"
     transform="matrix(2.0490396,0,0,-2.0490396,221.54376,154.28685)"
     style="fill:#273c83;fill-opacity:1"><path
       inkscape:connector-curvature="0"
       d="m 0,0 -1.229,-7.366 -1.587,0 L -1.586,0 0,0 z"
       style="fill:#273c83;fill-opacity:1;fill-rule:nonzero;stroke:none"
       id="path90-7-66" /></g><g
     id="g92-34-9"
     transform="matrix(2.0490396,0,0,-2.0490396,228.88954,163.91384)"
     style="fill:#273c83;fill-opacity:1"><path
       inkscape:connector-curvature="0"
       d="m 0,0 c -1.281,-0.047 -1.922,-0.419 -1.922,-1.118 0,-0.19 0.055,-0.349 0.169,-0.475 0.113,-0.128 0.262,-0.191 0.45,-0.191 0.307,0 0.58,0.148 0.818,0.446 C -0.248,-1.041 -0.083,-0.595 0,0 m -0.236,-2.668 c -0.006,0.162 -0.012,0.275 -0.012,0.34 0,0.072 0.012,0.188 0.033,0.35 0.017,0.097 0.026,0.182 0.028,0.254 -0.341,-0.717 -0.928,-1.075 -1.76,-1.075 -0.484,0 -0.878,0.142 -1.184,0.425 -0.307,0.284 -0.46,0.641 -0.46,1.067 0,0.598 0.266,1.076 0.8,1.437 0.536,0.362 1.502,0.575 2.903,0.64 0.063,0.17 0.095,0.332 0.095,0.484 0,0.199 -0.065,0.356 -0.192,0.472 -0.128,0.115 -0.301,0.173 -0.521,0.173 -0.542,0 -0.908,-0.273 -1.088,-0.818 l -1.441,0.161 c 0.385,1.115 1.269,1.672 2.654,1.672 0.7,0 1.232,-0.146 1.596,-0.436 C 1.581,2.186 1.762,1.802 1.762,1.328 1.762,1.155 1.711,0.759 1.611,0.142 L 1.374,-1.267 C 1.297,-1.719 1.26,-2.066 1.26,-2.307 c 0,-0.114 0.009,-0.236 0.026,-0.361 l -1.522,0 z"
       style="fill:#273c83;fill-opacity:1;fill-rule:nonzero;stroke:none"
       id="path94-8-7" /></g><g
     id="g96-39-5"
     transform="matrix(2.0490396,0,0,-2.0490396,241.77205,160.72718)"
     style="fill:#273c83;fill-opacity:1"><path
       inkscape:connector-curvature="0"
       d="m 0,0 -1.308,0 -0.375,-2.197 c -0.044,-0.225 -0.062,-0.382 -0.062,-0.468 0,-0.296 0.235,-0.445 0.712,-0.445 0.226,0 0.416,0.016 0.571,0.048 l -0.205,-1.201 c -0.377,-0.061 -0.742,-0.091 -1.091,-0.091 -1.089,0 -1.634,0.441 -1.634,1.324 0,0.243 0.057,0.655 0.171,1.233 L -2.854,0 l -0.85,0 0.21,1.261 0.912,0 0.374,1.516 1.403,0.039 -0.266,-1.555 1.281,0 L 0,0 z"
       style="fill:#273c83;fill-opacity:1;fill-rule:nonzero;stroke:none"
       id="path98-0-2" /></g><g
     id="g100-16-2"
     transform="matrix(2.0490396,0,0,-2.0490396,248.05941,154.0848)"
     style="fill:#273c83;fill-opacity:1"><path
       inkscape:connector-curvature="0"
       d="m 0,0 -0.263,-1.555 -1.65,0 L -1.653,0 0,0 z m -0.331,-1.981 -0.918,-5.484 -1.649,0 0.915,5.484 1.652,0 z"
       style="fill:#273c83;fill-opacity:1;fill-rule:nonzero;stroke:none"
       id="path102-4-7" /></g><g
     id="g104-17-6"
     transform="matrix(2.0490396,0,0,-2.0490396,253.17197,158.14376)"
     style="fill:#273c83;fill-opacity:1"><path
       inkscape:connector-curvature="0"
       d="m 0,0 -0.176,-1.04 c 0.399,0.759 0.947,1.138 1.643,1.138 0.429,0 0.78,-0.14 1.051,-0.418 0.271,-0.279 0.407,-0.631 0.407,-1.059 0,-0.173 -0.042,-0.512 -0.126,-1.019 l -0.512,-3.086 -1.581,0 0.532,3.206 c 0.054,0.319 0.083,0.521 0.083,0.604 0,0.384 -0.189,0.576 -0.568,0.576 -0.2,0 -0.384,-0.065 -0.55,-0.196 -0.166,-0.132 -0.287,-0.301 -0.361,-0.509 -0.076,-0.207 -0.151,-0.53 -0.223,-0.969 l -0.455,-2.712 -1.586,0 L -1.505,0 0,0 z"
       style="fill:#273c83;fill-opacity:1;fill-rule:nonzero;stroke:none"
       id="path106-9-9" /></g><g
     id="g108-2-6"
     transform="matrix(2.0490396,0,0,-2.0490396,266.58473,160.05673)"
     style="fill:#273c83;fill-opacity:1"><path
       inkscape:connector-curvature="0"
       d="m 0,0 c -0.448,0 -0.757,-0.28 -0.929,-0.842 -0.175,-0.562 -0.259,-1.14 -0.259,-1.734 0,-0.694 0.272,-1.042 0.817,-1.042 0.444,0 0.75,0.305 0.915,0.916 0.166,0.61 0.248,1.163 0.248,1.66 C 0.792,-0.347 0.529,0 0,0 m 0.019,1.064 c 0.712,0 1.29,-0.237 1.731,-0.71 0.441,-0.475 0.664,-1.095 0.664,-1.862 0,-0.876 -0.268,-1.624 -0.805,-2.243 -0.534,-0.621 -1.207,-0.931 -2.013,-0.931 -0.695,0 -1.271,0.235 -1.725,0.703 -0.455,0.469 -0.681,1.059 -0.681,1.773 0,0.94 0.263,1.722 0.784,2.341 0.522,0.62 1.204,0.929 2.045,0.929"
       style="fill:#273c83;fill-opacity:1;fill-rule:nonzero;stroke:none"
       id="path110-52-1" /></g><g
     id="g112-0-6"
     transform="matrix(2.0490396,0,0,-2.0490396,279.80346,163.91384)"
     style="fill:#273c83;fill-opacity:1"><path
       inkscape:connector-curvature="0"
       d="m 0,0 c -1.282,-0.047 -1.922,-0.419 -1.922,-1.118 0,-0.19 0.055,-0.349 0.168,-0.475 0.111,-0.128 0.263,-0.191 0.45,-0.191 0.307,0 0.579,0.148 0.818,0.446 C -0.248,-1.041 -0.085,-0.595 0,0 m -0.235,-2.668 c -0.008,0.162 -0.013,0.275 -0.013,0.34 0,0.072 0.013,0.188 0.032,0.35 0.016,0.097 0.026,0.182 0.029,0.254 -0.342,-0.717 -0.928,-1.075 -1.762,-1.075 -0.483,0 -0.876,0.142 -1.183,0.425 -0.306,0.284 -0.461,0.641 -0.461,1.067 0,0.598 0.268,1.076 0.8,1.437 0.535,0.362 1.503,0.575 2.903,0.64 0.064,0.17 0.095,0.332 0.095,0.484 0,0.199 -0.063,0.356 -0.191,0.472 -0.13,0.115 -0.301,0.173 -0.52,0.173 -0.544,0 -0.908,-0.273 -1.091,-0.818 l -1.438,0.161 c 0.383,1.115 1.267,1.672 2.652,1.672 0.7,0 1.234,-0.146 1.598,-0.436 C 1.578,2.186 1.76,1.802 1.76,1.328 1.76,1.155 1.71,0.759 1.608,0.142 L 1.373,-1.267 C 1.297,-1.719 1.26,-2.066 1.26,-2.307 c 0,-0.114 0.008,-0.236 0.026,-0.361 l -1.521,0 z"
       style="fill:#273c83;fill-opacity:1;fill-rule:nonzero;stroke:none"
       id="path114-1-6" /></g><g
     id="g116-76-2"
     transform="matrix(2.0490396,0,0,-2.0490396,297.37033,169.38049)"
     style="fill:#273c83;fill-opacity:1"><path
       inkscape:connector-curvature="0"
       d="m 0,0 0.513,3.063 c 0.054,0.329 0.081,0.539 0.081,0.629 0,0.431 -0.193,0.645 -0.577,0.645 -0.23,0 -0.438,-0.097 -0.625,-0.295 C -0.793,3.846 -0.944,3.398 -1.057,2.701 L -1.514,0 l -1.53,0 0.549,3.263 c 0.044,0.262 0.064,0.431 0.064,0.508 0,0.399 -0.185,0.599 -0.555,0.599 -0.2,0 -0.378,-0.074 -0.538,-0.221 C -3.683,4.001 -3.793,3.82 -3.859,3.605 -3.922,3.39 -3.999,2.998 -4.09,2.426 L -4.502,0 l -1.587,0 0.916,5.484 1.437,0 -0.157,-0.937 c 0.279,0.456 0.543,0.749 0.793,0.876 0.25,0.128 0.515,0.192 0.79,0.192 0.642,0 1.089,-0.342 1.349,-1.024 0.408,0.66 0.942,0.991 1.594,0.991 0.476,0 0.85,-0.145 1.132,-0.434 C 2.044,4.859 2.184,4.483 2.184,4.024 2.184,3.848 2.143,3.52 2.063,3.042 L 1.555,0 0,0 z"
       style="fill:#273c83;fill-opacity:1;fill-rule:nonzero;stroke:none"
       id="path118-3-2" /></g><g
     id="g120-7-3"
     transform="matrix(2.0490396,0,0,-2.0490396,307.04735,162.47011)"
     style="fill:#273c83;fill-opacity:1"><path
       inkscape:connector-curvature="0"
       d="M 0,0 2.003,0 C 2.02,0.121 2.03,0.231 2.03,0.33 2.03,0.618 1.946,0.839 1.782,0.995 1.615,1.148 1.416,1.228 1.183,1.228 0.572,1.228 0.179,0.818 0,0 m 3.448,-0.901 -3.564,0 c -0.021,-0.181 -0.03,-0.315 -0.03,-0.405 0,-0.357 0.088,-0.623 0.272,-0.8 0.181,-0.179 0.401,-0.269 0.664,-0.269 0.522,0 0.89,0.289 1.107,0.868 L 3.24,-1.732 C 3.057,-2.259 2.746,-2.685 2.303,-3.012 1.867,-3.341 1.332,-3.504 0.702,-3.504 c -0.724,0 -1.311,0.234 -1.762,0.702 -0.451,0.467 -0.677,1.076 -0.677,1.829 0,0.834 0.267,1.578 0.799,2.233 0.532,0.655 1.237,0.982 2.112,0.982 0.735,0 1.305,-0.238 1.715,-0.713 0.409,-0.475 0.613,-1.065 0.613,-1.771 0,-0.155 -0.016,-0.375 -0.054,-0.659"
       style="fill:#273c83;fill-opacity:1;fill-rule:nonzero;stroke:none"
       id="path122-3-2" /></g><g
     id="g124-3-7"
     transform="matrix(2.0490396,0,0,-2.0490396,322.86322,161.23043)"
     style="fill:#273c83;fill-opacity:1"><path
       inkscape:connector-curvature="0"
       d="m 0,0 c -0.294,0 -0.535,-0.044 -0.724,-0.132 -0.189,-0.088 -0.363,-0.25 -0.524,-0.481 -0.156,-0.233 -0.273,-0.494 -0.345,-0.782 -0.074,-0.289 -0.163,-0.754 -0.264,-1.397 l -0.206,-1.186 -1.651,0 0.917,5.484 1.536,0 -0.194,-1.257 c 0.158,0.375 0.317,0.659 0.479,0.855 0.159,0.197 0.322,0.326 0.491,0.39 0.168,0.062 0.382,0.093 0.651,0.093 L 0,0 z"
       style="fill:#273c83;fill-opacity:1;fill-rule:nonzero;stroke:none"
       id="path126-4-5" /></g><g
     id="g128-40-1"
     transform="matrix(2.0490396,0,0,-2.0490396,329.14849,154.0848)"
     style="fill:#273c83;fill-opacity:1"><path
       inkscape:connector-curvature="0"
       d="m 0,0 -0.26,-1.555 -1.65,0 L -1.651,0 0,0 z m -0.329,-1.981 -0.916,-5.484 -1.652,0 0.917,5.484 1.651,0 z"
       style="fill:#273c83;fill-opacity:1;fill-rule:nonzero;stroke:none"
       id="path130-8-6" /></g><g
     id="g132-7-9"
     transform="matrix(2.0490396,0,0,-2.0490396,339.66783,165.45247)"
     style="fill:#273c83;fill-opacity:1"><path
       inkscape:connector-curvature="0"
       d="m 0,0 c -0.464,-1.366 -1.309,-2.048 -2.534,-2.048 -0.763,0 -1.355,0.238 -1.77,0.715 -0.415,0.478 -0.625,1.085 -0.625,1.82 0,0.824 0.262,1.561 0.78,2.208 0.518,0.647 1.207,0.97 2.073,0.97 0.785,0 1.358,-0.214 1.726,-0.639 C 0.014,2.601 0.197,2.146 0.197,1.66 l 0,-0.118 -1.426,-0.086 c 0,0.363 -0.08,0.623 -0.247,0.779 -0.165,0.157 -0.356,0.234 -0.568,0.234 -0.354,0 -0.638,-0.207 -0.848,-0.621 -0.212,-0.413 -0.316,-0.953 -0.316,-1.622 0,-0.676 0.278,-1.014 0.837,-1.014 0.49,0 0.836,0.322 1.028,0.966 L 0,0 z"
       style="fill:#273c83;fill-opacity:1;fill-rule:nonzero;stroke:none"
       id="path134-9-9" /></g><g
     id="g136-24-7"
     transform="matrix(2.0490396,0,0,-2.0490396,347.94004,163.91384)"
     style="fill:#273c83;fill-opacity:1"><path
       inkscape:connector-curvature="0"
       d="m 0,0 c -1.281,-0.047 -1.923,-0.419 -1.923,-1.118 0,-0.19 0.057,-0.349 0.169,-0.475 0.111,-0.128 0.264,-0.191 0.45,-0.191 0.307,0 0.579,0.148 0.819,0.446 0.237,0.297 0.4,0.743 0.485,1.338 m -0.236,-2.668 c -0.008,0.162 -0.012,0.275 -0.012,0.34 0,0.072 0.012,0.188 0.034,0.35 0.014,0.097 0.022,0.182 0.027,0.254 -0.342,-0.717 -0.93,-1.075 -1.764,-1.075 -0.481,0 -0.873,0.142 -1.182,0.425 -0.305,0.284 -0.459,0.641 -0.459,1.067 0,0.598 0.268,1.076 0.802,1.437 0.532,0.362 1.498,0.575 2.9,0.64 0.064,0.17 0.095,0.332 0.095,0.484 0,0.199 -0.064,0.356 -0.193,0.472 -0.127,0.115 -0.301,0.173 -0.519,0.173 -0.544,0 -0.905,-0.273 -1.089,-0.818 l -1.439,0.161 c 0.384,1.115 1.269,1.672 2.652,1.672 0.701,0 1.233,-0.146 1.597,-0.436 C 1.578,2.186 1.761,1.802 1.761,1.328 1.761,1.155 1.71,0.759 1.609,0.142 L 1.371,-1.267 c -0.074,-0.452 -0.112,-0.799 -0.112,-1.04 0,-0.114 0.008,-0.236 0.026,-0.361 l -1.521,0 z"
       style="fill:#273c83;fill-opacity:1;fill-rule:nonzero;stroke:none"
       id="path138-3-9" /></g></svg>