<?xml version="1.0" encoding="UTF-8" standalone="no"?>
<!-- Created with Inkscape (http://www.inkscape.org/) -->

<svg
   xmlns:dc="http://purl.org/dc/elements/1.1/"
   xmlns:cc="http://creativecommons.org/ns#"
   xmlns:rdf="http://www.w3.org/1999/02/22-rdf-syntax-ns#"
   xmlns:svg="http://www.w3.org/2000/svg"
   xmlns="http://www.w3.org/2000/svg"
   xmlns:sodipodi="http://sodipodi.sourceforge.net/DTD/sodipodi-0.dtd"
   xmlns:inkscape="http://www.inkscape.org/namespaces/inkscape"
   width="157.90181"
   height="56.349998"
   id="svg2"
   version="1.1"
   inkscape:version="0.48.4 r9939"
   sodipodi:docname="logo.svg"
   inkscape:export-filename="/home/od/Escritorio/dibujo.png"
   inkscape:export-xdpi="90"
   inkscape:export-ydpi="90">
  <defs
     id="defs4" />
  <sodipodi:namedview
     id="base"
     pagecolor="#ffffff"
     bordercolor="#666666"
     borderopacity="1.0"
     inkscape:pageopacity="0.0"
     inkscape:pageshadow="2"
     inkscape:zoom="2.0000001"
     inkscape:cx="-22.865019"
     inkscape:cy="-82.621069"
     inkscape:document-units="px"
     inkscape:current-layer="text2985"
     showgrid="false"
     inkscape:window-width="1366"
     inkscape:window-height="718"
     inkscape:window-x="0"
     inkscape:window-y="0"
     inkscape:window-maximized="1"
     fit-margin-top="0"
     fit-margin-left="0"
     fit-margin-right="0"
     fit-margin-bottom="0" />
  <metadata
     id="metadata7">
    <rdf:RDF>
      <cc:Work
         rdf:about="">
        <dc:format>image/svg+xml</dc:format>
        <dc:type
           rdf:resource="http://purl.org/dc/dcmitype/StillImage" />
        <dc:title />
      </cc:Work>
    </rdf:RDF>
  </metadata>
  <g
     inkscape:label="Capa 1"
     inkscape:groupmode="layer"
     id="layer1"
     transform="translate(-113.65601,-170.30601)">
    <g
       style="font-size:40px;font-style:normal;font-weight:normal;line-height:125%;letter-spacing:0px;word-spacing:0px;fill:#000000;fill-opacity:1;stroke:none;font-family:Sans"
       id="text2985">
      <path
         d="m 166.39377,179.46885 c 1.40935,0.70475 2.5186,1.6574 3.32776,2.85796 0.80905,1.20065 1.09616,2.66224 0.8613,4.38483 -0.20885,1.14843 -0.63951,2.33598 -1.29195,3.56266 -0.62645,1.22674 -1.38334,2.42733 -2.27071,3.60182 -0.86136,1.17453 -1.80096,2.30988 -2.81882,3.40607 -0.99184,1.07012 -1.93145,2.04888 -2.81882,2.93627 -3.34084,3.15812 -6.98181,5.92473 -10.92289,8.29984 -3.94115,2.37511 -8.07802,4.38481 -12.41062,6.02913 -2.63613,0.96571 -5.23308,1.7487 -7.79088,2.349 -2.53172,0.60031 -4.85463,1.05706 -6.96873,1.37026 -2.11412,0.3132 -3.91503,0.52201 -5.40273,0.62641 -1.48772,0.10438 -2.47951,0.14354 -2.97541,0.11742 -0.0262,0 -0.10439,-0.013 -0.23491,-0.0392 -0.13051,-0.0262 -0.27406,-0.0652 -0.43065,-0.11742 -0.1566,-0.0262 -0.2871,-0.0652 -0.39151,-0.11743 -0.13048,-0.0262 -0.19573,-0.0653 -0.19573,-0.11741 -0.0262,-0.0262 0.15659,-0.0783 0.5481,-0.1566 0.3654,-0.0522 0.783,-0.11742 1.2528,-0.19576 0.44371,-0.0782 0.87435,-0.14355 1.29195,-0.19574 0.4176,-0.0522 0.65251,-0.0783 0.70471,-0.0783 3.0015,-0.5481 6.17268,-1.30502 9.51349,-2.27071 3.36691,-0.9396 6.70771,-2.10107 10.02245,-3.48436 3.3408,-1.3572 6.55111,-2.91016 9.63095,-4.65889 3.10589,-1.77478 5.91165,-3.74536 8.41729,-5.91167 1.46156,-1.2267 2.89706,-2.4795 4.30652,-3.75841 1.40936,-1.27889 2.71437,-2.5317 3.91503,-3.75842 1.20055,-1.25279 2.27065,-2.4534 3.21031,-3.60183 0.93955,-1.17447 1.6573,-2.27067 2.15325,-3.28861 0.49586,-1.01787 0.64641,-1.94443 0.64646,-2.77966 -5e-5,-0.86127 -0.32629,-1.59207 -0.97876,-2.19241 -0.78304,-0.65246 -1.78186,-1.12228 -3.19121,-1.40941 -1.40945,-0.31317 -2.98851,-0.49586 -4.73717,-0.5481 -1.72265,-0.0784 -3.54967,-0.0392 -5.48103,0.11742 -1.93146,0.13054 -3.7976,0.30019 -5.59847,0.50896 -1.80094,0.20883 -3.47135,0.44373 -5.01123,0.70471 -1.51382,0.23492 -2.75359,0.43068 -3.71928,0.58724 -2.16632,0.36544 -4.24128,0.76999 -6.22488,1.21366 -1.98361,0.41763 -4.04553,0.80913 -6.18573,1.17451 -0.0522,2e-5 -0.11741,2e-5 -0.19574,0 -0.0522,2e-5 -0.0652,-0.026 -0.0392,-0.0782 0.0261,-0.0522 0.13048,-0.13049 0.31319,-0.23491 1.9314,-0.75687 3.7323,-1.43547 5.40273,-2.03581 1.6965,-0.60027 3.51045,-1.16142 5.44187,-1.68345 6.00301,-1.69649 12.09738,-2.58389 18.28314,-2.66222 1.48767,3e-5 3.01453,0.0914 4.58057,0.27404 1.56597,0.15665 3.05366,0.57425 4.46313,1.25281 m -39.0719,29.715 c -0.0784,-0.0522 -0.0914,-0.1566 -0.0392,-0.31321 0.0784,-0.18269 0.14354,-0.32625 0.19575,-0.43064 0.4176,-0.70469 0.783,-1.30501 1.0962,-1.80091 0.3393,-0.52199 0.66555,-1.0179 0.97876,-1.48772 0.31319,-0.46979 0.6264,-0.93958 0.9396,-1.4094 0.33929,-0.46979 0.73079,-1.01789 1.17452,-1.6443 1.87917,-2.47951 3.7584,-4.94597 5.63761,-7.3994 1.9053,-2.45338 3.90195,-4.84154 5.98999,-7.16447 0.73078,-0.83518 1.46159,-1.64429 2.19241,-2.42731 0.73077,-0.78298 1.53987,-1.52684 2.42732,-2.23157 0.0783,-0.0522 0.18267,-0.13046 0.31319,-0.23491 0.13047,-0.10438 0.26098,-0.19571 0.39151,-0.27404 0.15657,-0.10439 0.30012,-0.16962 0.43064,-0.19576 0.15657,-0.0522 0.30013,-0.0522 0.43065,0 0.10439,0.10439 0.14352,0.23494 0.11742,0.39152 -2e-5,0.13052 -0.0392,0.27406 -0.11742,0.43064 -0.0523,0.15663 -0.11753,0.31323 -0.19573,0.4698 -0.0784,0.13054 -0.13054,0.23494 -0.15662,0.3132 -0.52202,0.93963 -1.09623,1.85315 -1.72261,2.74052 -0.62643,0.86133 -1.31807,1.78787 -2.07495,2.77966 -1.95754,2.42734 -3.9803,4.80244 -6.06828,7.12533 -2.06193,2.29683 -4.11079,4.61974 -6.14659,6.96874 -0.88742,0.91351 -1.73567,1.82702 -2.54476,2.74052 -0.80911,0.91351 -1.67042,1.82701 -2.58391,2.7405 -0.10438,0.10439 -0.22186,0.19577 -0.35234,0.27406 -0.13052,0.0784 -0.23493,0.0914 -0.31321,0.0392"
         style="font-variant:normal;font-weight:bold;font-stretch:normal;fill:#f9f9f9;font-family:Streamster;-inkscape-font-specification:Streamster Bold"
         id="path2990"
         inkscape:connector-curvature="0"
         sodipodi:nodetypes="cccccccsccsscccccccccccccccccccccccccccccccccccccccsccccscccccccccccccscsc" />
      <path
         style="font-variant:normal;font-weight:bold;font-stretch:normal;fill:#f9f9f9;font-family:Streamster;-inkscape-font-specification:Streamster Bold"
         d="m 171.52513,197.17217 c -0.36542,3e-5 -0.69616,0.0486 -1.00935,0.15294 -0.67861,0.20881 -1.33112,0.48653 -1.95751,0.82582 -0.62641,0.31323 -1.23038,0.68352 -1.80458,1.1011 -0.60032,0.41762 -1.16472,0.84542 -1.71282,1.31521 -0.5481,0.44371 -1.064,0.91555 -1.55989,1.43754 -0.9918,1.07012 -1.91304,2.22505 -2.72217,3.42564 -0.80909,1.20062 -1.28093,2.54967 -1.43754,4.03737 -0.0782,0.6786 0.11138,1.20347 0.58114,1.62106 0.4959,0.3915 1.05583,0.61171 1.68223,0.61171 0.73081,-0.0262 1.43184,-0.20225 2.11044,-0.48937 0.67859,-0.3132 1.33111,-0.64393 1.95752,-1.00933 1.305,-0.7308 2.51293,-1.52441 3.60915,-2.38572 0.72385,-0.60592 1.33529,-1.40322 1.87326,-2.20501 1.27169,-1.5841 -1.04725,0.22036 -1.59799,0.58395 -0.8874,0.57419 -1.77807,1.13414 -2.69158,1.68223 -0.9135,0.522 -1.83924,0.98038 -2.75274,1.34579 -0.91349,0.33929 -1.75115,0.51998 -2.50806,0.51997 0.26101,-0.91351 0.67983,-1.75116 1.25403,-2.50807 1.0701,-0.28709 2.03989,-0.60885 2.87509,-0.94817 0.83521,-0.36538 1.67286,-0.78421 2.50807,-1.25402 1.17449,-0.70471 2.21075,-1.55132 3.15035,-2.56923 0.2349,-0.261 0.46409,-0.53423 0.6729,-0.79524 0.20879,-0.26099 0.40292,-0.53871 0.61173,-0.82583 0.44369,-0.67859 0.71247,-1.33109 0.76466,-1.95751 0.0522,-0.65248 -0.23003,-1.16388 -0.85642,-1.5293 -0.31322,-0.15661 -0.67454,-0.20955 -1.03992,-0.18353 z m 0.24469,1.71283 c -0.31322,0.91351 -0.7716,1.75566 -1.3458,2.53864 -0.54811,0.78301 -1.16554,1.48406 -1.89634,2.11045 -0.70471,0.62641 -1.49383,1.08404 -2.35513,1.55383 -0.83521,0.4437 -1.71242,0.77444 -2.59982,1.00933 0.1827,-0.26098 0.35888,-0.39685 0.48938,-0.60565 0.1566,-0.20879 0.35072,-0.44697 0.61173,-0.73407 1.0962,-1.1745 2.21156,-2.28987 3.33388,-3.33389 1.12231,-1.04398 2.37878,-1.88612 3.7621,-2.53864 z"
         id="path2992"
         inkscape:connector-curvature="0"
         sodipodi:nodetypes="ccccccccccccccccccccccscccccccccccsc" />
      <path
         style="font-variant:normal;font-weight:bold;font-stretch:normal;fill:#f9f9f9;font-family:Streamster;-inkscape-font-specification:Streamster Bold"
         d="m 185.59472,190.7491 c -0.23492,2e-5 -0.46859,0.044 -0.70348,0.12235 -0.23492,0.0523 -0.42454,0.10967 -0.58113,0.2141 -0.33932,0.18272 -0.62602,0.49551 -0.887,0.88699 -0.26102,0.36543 -0.34014,0.7447 -0.18352,1.16228 0.0784,0.20882 0.2149,0.3499 0.39762,0.4282 0.18269,0.0784 0.37232,0.1269 0.58113,0.15293 0.2088,0 0.4335,-0.004 0.64231,-0.0305 0.23489,-0.0522 0.42452,-0.1358 0.58114,-0.2141 0.18269,-0.0784 0.36783,-0.17983 0.55056,-0.33645 0.18266,-0.15659 0.32828,-0.33725 0.45878,-0.51997 0.15659,-0.20877 0.28419,-0.4029 0.33646,-0.61172 0.0784,-0.23488 0.0784,-0.46407 0,-0.67288 -0.10439,-0.23489 -0.2806,-0.3805 -0.48938,-0.4588 -0.20883,-0.0783 -0.44251,-0.12233 -0.70349,-0.12235 z m -3.79267,6.79012 c -0.0717,0.007 -0.15335,0.022 -0.24469,0.0612 -0.15661,0.0522 -0.44779,0.28588 -0.91759,0.70348 -0.4698,0.41759 -1.02973,0.93798 -1.68223,1.59047 -0.65252,0.65252 -1.35354,1.39759 -2.11044,2.23278 -0.73081,0.80912 -1.46692,1.64676 -2.17162,2.50806 -0.67859,0.86131 -1.28706,1.70345 -1.83516,2.53865 -0.5481,0.80911 -0.96244,1.5497 -1.22344,2.20219 -0.13049,0.28712 -0.22311,0.61336 -0.27528,0.97876 -0.0783,0.36541 0.004,0.64761 0.21412,0.85641 0.23488,0.20881 0.46856,0.34089 0.70346,0.36703 0.20881,0.0261 0.40291,-0.0178 0.61173,-0.12234 0.23491,-0.0783 0.4596,-0.17535 0.64231,-0.30586 0.0787,-0.059 0.14282,-0.0976 0.2141,-0.15292 0.021,-0.0332 0.0517,-0.0445 0.0917,-0.0612 0.0777,-0.0323 0.14961,-0.11899 0.24468,-0.2141 0.009,-0.009 0.0221,-0.0227 0.0305,-0.0305 0.83456,-1.05425 1.45572,-2.41307 2.01869,-3.5174 0.0119,-0.0959 1.16843,-1.92118 1.52931,-2.44688 0.60029,-0.86129 1.19529,-1.69445 1.7434,-2.47748 0.54809,-0.80909 1.05949,-1.56314 1.5293,-2.29395 0.4698,-0.73079 0.85355,-1.42285 1.19287,-2.04927 0.0522,-0.10439 0.0522,-0.19253 0,-0.24469 -0.0262,-0.0522 -0.0702,-0.0655 -0.12235,-0.0917 -0.0522,-0.0261 -0.11174,-0.037 -0.18352,-0.0305 z"
         id="path2994"
         inkscape:connector-curvature="0"
         sodipodi:nodetypes="sccccccccccccccsccsccccccccccccccccscccssc" />
      <path
         style="font-variant:normal;font-weight:bold;font-stretch:normal;fill:#f9f9f9;font-family:Streamster;-inkscape-font-specification:Streamster Bold"
         d="m 203.76312,176.80184 c -0.0522,0.0195 -0.11825,0.0701 -0.18353,0.12235 -0.13051,0.0783 -0.27162,0.21047 -0.4282,0.36703 -0.15662,0.13053 -0.3328,0.27165 -0.48938,0.42821 -0.13051,0.15663 -0.22757,0.25815 -0.30587,0.33645 -0.4176,0.44373 -0.80136,0.90661 -1.19284,1.37638 -0.39153,0.44372 -0.80587,0.9066 -1.22345,1.37636 -1.48773,1.82704 -2.93382,3.64344 -4.34323,5.44434 -1.40941,1.77483 -2.81147,3.59571 -4.22088,5.47489 -1.40941,1.87924 -2.80251,3.7927 -4.1597,5.7502 -1.35721,1.93141 -2.70626,3.84488 -4.03737,5.75017 -0.783,1.12231 -1.5811,2.29072 -2.41629,3.51741 -0.8091,1.2267 -1.55418,2.43466 -2.23279,3.60916 -0.261,0.4959 -0.16843,0.91024 0.27528,1.22344 0.1566,0.10438 0.49285,0.2051 0.77994,0.15292 0.26101,-0.0522 0.27159,-0.2456 0.4282,-0.48049 0.3132,-0.46981 0.804,-1.07366 1.29992,-1.75227 0.52199,-0.6786 0.9498,-1.23853 1.3152,-1.68224 0.4698,-0.62639 1.1223,-1.41103 1.9575,-2.32453 0.83521,-0.9396 1.76094,-1.74144 2.75276,-2.65494 0.99179,-0.9135 1.97951,-1.75115 2.99743,-2.50807 1.044,-0.78298 2.01377,-1.43174 2.8751,-1.71886 -0.18272,0.4176 -0.4164,0.88049 -0.70348,1.37636 -0.26102,0.46983 -0.57382,0.94167 -0.887,1.43755 -0.31322,0.46982 -0.63946,0.97225 -0.97876,1.46814 -0.31322,0.4698 -0.59989,0.89311 -0.887,1.28461 -1.09621,1.25282 -2.17202,2.33311 -3.24212,3.27271 -1.07012,0.91351 -2.23401,1.60044 -3.48681,2.22682 -0.21541,0.222 -2.39536,0.6966 -2.63041,0.69689 -0.2871,0.1566 -0.4678,0.38662 -0.51997,0.46492 -0.13047,0.1566 -0.63329,0.58196 -0.58109,0.76466 0.0522,0.18269 0.14295,0.10075 0.35174,0.15292 0.0784,0.0262 0.71959,-0.035 0.9023,-0.0612 0.2088,0 2.39551,-0.43074 2.63041,-0.4829 0.26101,-0.0522 0.43662,-0.10075 0.69763,-0.15294 0.261,-0.0522 0.49468,-0.10075 0.70348,-0.15293 0.4852,-0.13996 0.65151,-0.28213 1.11336,-0.45878 0.3892,-0.14886 0.75909,-0.34505 1.13169,-0.51997 1.46358,-0.99038 3.95012,-3.2296 4.21445,-3.5174 0.0173,-0.0189 0.12235,-0.12235 0.12235,-0.12235 0.93456,-1.04846 1.76927,-2.16741 2.53865,-3.33387 0.80909,-1.2528 1.40857,-2.4212 1.77398,-3.5174 0.10439,-0.31319 0.15294,-0.6835 0.15295,-1.1011 0.0261,-0.41759 -0.11952,-0.69532 -0.4588,-0.82582 -0.23491,-0.10439 -0.60521,-0.10439 -1.1011,0 -0.49592,0.10438 -1.09989,0.33808 -1.80457,0.70347 -0.70471,0.33932 -1.49832,0.84623 -2.38572,1.49871 -0.88741,0.62642 -1.86167,1.42003 -2.90568,2.38572 0.39149,-0.52199 0.76628,-1.03339 1.13169,-1.5293 0.39149,-0.522 0.7573,-0.99382 1.07051,-1.43755 0.33929,-0.44369 0.6215,-0.81847 0.8564,-1.13168 0.261,-0.33929 0.44615,-0.60804 0.55056,-0.76466 0.0783,-0.10439 0.35152,-0.47467 0.79524,-1.10109 0.44368,-0.62638 1.00362,-1.38493 1.68223,-2.32456 0.67859,-0.96566 1.42814,-2.037 2.26337,-3.21153 0.83518,-1.20058 1.67283,-2.41301 2.50806,-3.63974 0.83519,-1.22668 1.63327,-2.43463 2.4163,-3.60916 0.78299,-1.20057 1.47504,-2.27191 2.04926,-3.21154 0.60029,-0.93956 1.02809,-1.7242 1.31521,-2.32454 0.3132,-0.60026 0.40575,-0.93105 0.27527,-1.00935 -0.0392,-0.013 -0.0701,-0.0195 -0.12234,0 z"
         id="path2996"
         inkscape:connector-curvature="0"
         sodipodi:nodetypes="ccccccccsccccccscccsccccccccccccccscscccccccccccccccsccscccccc" />
      <path
         d="m 210.96237,198.3001 c -0.15663,0.26102 -0.49593,0.76996 -1.01792,1.52685 -0.52201,0.75692 -1.14842,1.64432 -1.8792,2.66222 -0.73082,1.01791 -1.50078,2.08802 -2.30987,3.21031 -0.78301,1.09622 -1.52687,2.12717 -2.23156,3.09287 -0.6786,0.9396 -1.25281,1.72261 -1.7226,2.34901 -0.46981,0.6264 -0.71777,0.96571 -0.74386,1.0179 -1.05524,1.61602 -2.69463,3.02954 -4.74227,4.8154 -1.38331,0.99179 -2.5229,1.61064 -4.30651,2.34577 -1.77273,0.65026 -3.97515,1.00511 -4.23999,1.07893 -0.52199,0.1305 -1.42694,0.1956 -2.14151,0.24499 -0.75152,0.0499 -1.41545,-0.0762 -2.07494,-0.0802 -0.20881,-2e-5 -0.35235,-0.0392 -0.43067,-0.11741 -0.0522,-0.0522 0.0392,-0.13053 0.27406,-0.23491 0.6601,-0.24838 1.43825,-0.33969 1.99666,-0.42884 0.49591,-0.18272 0.99182,-0.14165 1.4877,-0.35044 1.12215,-0.22715 3.06677,-0.7386 4.50228,-1.67819 1.40941,-0.91353 2.76662,-1.56279 4.07162,-2.65899 2.30439,-2.40299 2.30375,-2.52851 4.15501,-5.40264 0.6264,-0.8352 1.22669,-1.70956 1.80093,-2.62307 0.60027,-0.91348 1.27888,-1.9053 2.03579,-2.97541 -0.67862,0.57421 -1.35721,1.16147 -2.03579,1.76176 -0.65254,0.57422 -1.31808,1.16146 -1.99667,1.76175 -0.57422,0.52201 -1.14841,1.03097 -1.72261,1.52686 -0.5742,0.49591 -1.16146,0.97875 -1.76176,1.44856 -0.1566,0.13051 -0.33931,0.27405 -0.54811,0.43065 -0.20881,0.15661 -0.43065,0.28711 -0.66554,0.39151 -0.23491,0.10439 -0.46981,0.15659 -0.7047,0.15659 -0.23492,0 -0.45677,-0.0782 -0.66556,-0.23489 -0.28711,-0.23491 -0.43065,-0.53505 -0.43065,-0.90046 0,-0.3654 0.0392,-0.71776 0.11741,-1.05705 0.15662,-0.5742 0.36541,-1.1223 0.62641,-1.64431 0.26099,-0.54809 0.56116,-1.08314 0.90045,-1.60515 0.6786,-1.04401 1.43551,-2.02277 2.27071,-2.93628 0.8613,-0.93959 1.76176,-1.78783 2.70137,-2.54476 0.54809,-0.44368 1.10925,-0.86129 1.68347,-1.2528 0.60028,-0.39148 1.23974,-0.69164 1.91835,-0.90046 0.0261,2e-5 0.0784,-0.013 0.1566,-0.0392 0.10438,-0.0261 0.19574,-0.0392 0.27405,-0.0392 0.10439,2e-5 0.18269,0.0131 0.23491,0.0392 0.0522,1e-5 0.0392,0.0392 -0.0392,0.11742 -0.10439,0.13052 -0.22188,0.23492 -0.35236,0.3132 -0.10439,0.0784 -0.22186,0.18271 -0.35235,0.3132 -0.28712,0.23493 -0.56116,0.48288 -0.82215,0.74386 -0.23492,0.26102 -0.46981,0.53507 -0.70471,0.82215 -1.12232,1.25282 -2.15327,2.57088 -3.09286,3.95417 -0.91352,1.38332 -1.82702,2.77967 -2.74051,4.18908 0.3915,-0.261 0.76994,-0.52201 1.13535,-0.78302 0.3915,-0.26099 0.76995,-0.62008 1.13536,-0.88109 0.7308,-0.522 1.44855,-1.03094 2.15326,-1.52686 0.70469,-0.52198 1.39634,-1.04399 2.07496,-1.566 0.0783,-0.0784 0.28708,-0.261 0.6264,-0.5481 0.33929,-0.28709 0.73079,-0.62639 1.17451,-1.01791 0.46979,-0.41758 0.96569,-0.86129 1.4877,-1.33111 0.522,-0.46979 1.03094,-0.8154 1.52686,-1.23301 0.49589,-0.44368 0.95264,-0.84823 1.37026,-1.21366 0.41759,-0.36539 0.73079,-0.63944 0.9396,-0.82214 0.0522,-0.0522 0.15658,-0.14355 0.31321,-0.27406 0.15657,-0.13048 0.32622,-0.27402 0.50895,-0.43065 0.20877,-0.15659 0.40453,-0.30014 0.58725,-0.43066 0.20878,-0.13048 0.36538,-0.23487 0.4698,-0.31319 0.0522,-0.0261 0.16963,-0.0784 0.35236,-0.15661 0.20877,-0.10438 0.32622,-0.0784 0.35234,0.0783 -1e-5,0.13051 -0.0392,0.26102 -0.11742,0.39149 -0.0782,0.13053 -0.14356,0.26102 -0.19573,0.39151 -0.10439,0.18271 -0.20883,0.36542 -0.31322,0.54811 -0.0782,0.15662 -0.18271,0.32626 -0.31319,0.50894"
         style="font-variant:normal;font-weight:bold;font-stretch:normal;fill:#f9f9f9;font-family:Streamster;-inkscape-font-specification:Streamster Bold"
         id="path2998"
         inkscape:connector-curvature="0"
         sodipodi:nodetypes="ccsccccccccccccccccccccscccscsccscccccccccccccccsccscscscsccccccccc" />
      <path
         d="m 248.2138,182.99237 c 0.10438,1.53994 -0.0652,3.14509 -0.50895,4.81548 -0.44375,1.67043 -1.0571,3.31473 -1.84006,4.93292 -0.75695,1.61822 -1.61825,3.17117 -2.58391,4.65887 -0.96575,1.48772 -1.90535,2.83188 -2.81882,4.03248 -1.04404,1.40941 -2.15329,2.74052 -3.32777,3.99331 -1.14844,1.25282 -2.34905,2.46647 -3.60181,3.64097 -1.07014,1.01791 -2.21854,2.0358 -3.44522,3.05371 -1.22673,1.04401 -2.51869,1.99666 -3.87587,2.85796 -1.33112,0.86132 -2.71443,1.60517 -4.14992,2.23158 -1.40943,0.6264 -2.84493,1.05704 -4.30651,1.29194 -0.91353,0.15662 -1.82703,0.15662 -2.74052,0 -0.88741,-0.1305 -1.70957,-0.48286 -2.46647,-1.05705 -0.6264,-0.54811 -1.09621,-1.18755 -1.4094,-1.91837 -0.28711,-0.7047 -0.46983,-1.46159 -0.5481,-2.27069 -0.0783,-0.8091 -0.0783,-1.63126 0,-2.46647 0.10438,-0.8352 0.24794,-1.6443 0.43064,-2.42731 0.41761,-1.7226 0.99181,-3.39301 1.72261,-5.01123 0.7308,-1.64431 1.55295,-3.2103 2.46647,-4.69803 0.93959,-1.48767 1.95749,-2.91013 3.05371,-4.26736 1.09618,-1.35717 2.27069,-2.60998 3.52351,-3.75843 1.0962,-1.12227 2.23155,-2.15322 3.40607,-3.09285 1.20059,-0.93957 2.46644,-1.77479 3.79757,-2.50562 0.62638,-0.28706 1.27889,-0.57417 1.9575,-0.86131 0.70468,-0.28707 1.40939,-0.49586 2.11412,-0.6264 0.13046,-0.026 0.27404,-0.0392 0.43066,-0.0392 0.15657,-0.0261 0.28707,-0.013 0.3915,0.0392 0.10438,0.0523 0.0652,0.13054 -0.11742,0.2349 -0.15664,0.0784 -0.24798,0.14359 -0.27405,0.19576 -0.28713,0.15663 -0.56117,0.30018 -0.82216,0.43064 -0.23493,0.13054 -0.49593,0.27409 -0.783,0.43066 -1.27892,0.75693 -2.50564,1.61824 -3.68011,2.58391 -1.17453,0.96573 -2.29684,2.00974 -3.36692,3.13202 -1.17452,1.17453 -2.29684,2.42733 -3.36691,3.75842 -1.04403,1.30502 -2.02277,2.67527 -2.93627,4.11076 -0.99183,1.40943 -1.91836,2.88407 -2.77966,4.42398 -0.86132,1.53991 -1.61821,3.17118 -2.27072,4.89377 -0.26101,0.67861 -0.50896,1.44856 -0.74385,2.30987 -0.20881,0.8613 -0.31321,1.70955 -0.3132,2.54476 0.0262,0.83519 0.20878,1.59211 0.5481,2.27071 0.3393,0.6786 0.93959,1.14839 1.80091,1.4094 0.83519,0.28709 1.68345,0.3393 2.54477,0.1566 0.88738,-0.1827 1.72259,-0.44369 2.50561,-0.783 1.38329,-0.60031 2.67524,-1.34414 3.87587,-2.23155 1.22667,-0.86132 2.41422,-1.80092 3.56265,-2.81882 1.67039,-1.40941 3.40605,-3.00151 5.20699,-4.77633 1.82698,-1.80089 3.58873,-3.71926 5.28527,-5.75507 1.72257,-2.0358 3.28858,-4.16295 4.69803,-6.38148 1.43546,-2.24459 2.59691,-4.52834 3.48436,-6.85129 0.23486,-0.57417 0.43062,-1.20058 0.58726,-1.87921 0.18265,-0.67857 0.274,-1.34412 0.27405,-1.99667 0.0261,-0.67856 -0.16273,-1.31801 -0.3715,-1.91835 -0.20885,-0.62637 -0.56119,-1.17447 -1.05706,-1.6443 -0.65254,-0.57418 -1.27285,-0.95262 -2.05581,-1.13536 -0.78304,-0.20877 -1.5791,-0.30011 -2.38816,-0.27405 -0.80914,0.0523 -1.61825,0.16967 -2.42731,0.35235 -0.78304,0.18274 -1.55299,0.41763 -2.30987,0.7047 -1.48773,0.44374 -2.93629,0.99185 -4.34568,1.64432 -1.38331,0.65253 -2.74054,1.39638 -4.0716,2.23155 -1.30504,0.83524 -2.51869,1.73569 -3.64098,2.70136 -1.09622,0.96574 -2.21853,1.97059 -3.36692,3.01458 -0.0783,0.0523 -0.16966,0.11753 -0.27404,0.19573 -0.0784,0.0523 -0.15663,0.0914 -0.2349,0.11743 -0.10439,0.0262 -0.13053,-0.0261 -0.0783,-0.1566 0.0783,-0.13047 0.11741,-0.20879 0.11741,-0.23492 0.52198,-0.99177 1.16144,-1.93136 1.91835,-2.81879 0.75689,-0.88739 1.52685,-1.70955 2.30987,-2.46648 1.17449,-1.14836 2.42729,-2.15323 3.75842,-3.01456 1.35717,-0.88737 2.77963,-1.64426 4.26736,-2.2707 1.48769,-0.60028 3.02758,-1.03092 4.61972,-1.29196 1.59208,-0.28706 3.17113,-0.31317 4.73718,-0.0783 0.75686,0.13054 1.51377,0.32628 2.27072,0.58725 0.75685,0.26103 1.43545,0.6917 2.03579,1.29196 0.60028,0.57424 1.05703,1.25283 1.37026,2.0358 0.33927,0.78304 0.54806,1.6052 0.62641,2.46647"
         style="font-variant:normal;font-weight:bold;font-stretch:normal;fill:#f9f9f9;font-family:Streamster;-inkscape-font-specification:Streamster Bold"
         id="path3000"
         inkscape:connector-curvature="0"
         sodipodi:nodetypes="cccccccccccccccccccscccccccccccscccscccccccccccccccccccccccccccccsccccccccc" />
      <path
         d="m 271.54483,176.33684 c 0.026,0.0262 0.013,0.10438 -0.0392,0.2349 -0.0262,0.13054 -0.0782,0.2741 -0.1566,0.43064 -0.0523,0.13055 -0.11755,0.26105 -0.19575,0.39152 -0.0523,0.13052 -0.0914,0.22188 -0.11742,0.27404 -0.75693,1.46165 -1.59215,2.8841 -2.50561,4.26738 -0.91353,1.38333 -1.82705,2.76664 -2.74052,4.14992 -0.99183,1.46163 -1.99668,2.91019 -3.01455,4.34568 -0.99183,1.40942 -2.00975,2.83187 -3.05372,4.26735 -1.59213,2.21853 -3.19729,4.43704 -4.81547,6.65554 -1.59213,2.19243 -3.26254,4.35872 -5.01123,6.49893 0.26097,-0.18269 0.56114,-0.39148 0.90045,-0.6264 0.36539,-0.261 0.65249,-0.45675 0.86131,-0.58725 0.73079,-0.52199 1.52684,-1.044 2.38815,-1.56602 1.8467,-0.72944 -0.76356,1.29008 -0.76356,1.29008 0,0 -1.59452,1.64717 -1.89865,1.92024 -0.783,0.70472 -1.51382,1.35722 -2.1924,1.95751 -0.33932,0.28712 -0.60031,0.52201 -0.78301,0.7047 -0.18272,0.1566 -0.46981,0.33931 -0.86131,0.54811 -0.57421,0.20881 -1.05706,0.11742 -1.44856,-0.27405 -0.20879,-0.261 -0.27405,-0.5742 -0.19573,-0.93961 0.10438,-0.39148 0.20878,-0.73079 0.31319,-1.0179 0.26099,-0.62639 0.63945,-1.31804 1.13537,-2.07496 0.49588,-0.783 0.93958,-1.4616 1.3311,-2.03582 -0.96572,0.88742 -2.06194,1.82703 -3.28862,2.81882 -1.22671,0.96571 -2.38818,1.86616 -3.48437,2.70137 -0.1566,0.1305 -0.35236,0.27404 -0.58726,0.43064 -0.20881,0.15662 -0.43065,0.28711 -0.66554,0.39151 -0.20882,0.10438 -0.43065,0.1566 -0.66556,0.1566 -0.2349,0 -0.45675,-0.0784 -0.66555,-0.23489 -0.2871,-0.2349 -0.43065,-0.53506 -0.43065,-0.90046 -0.0262,-0.3654 0.013,-0.70469 0.11741,-1.01791 0.39151,-1.1745 0.91349,-2.24461 1.56601,-3.21032 0.65249,-0.99179 1.34415,-1.8792 2.07497,-2.66222 0.73078,-0.80908 1.4355,-1.50074 2.11409,-2.07495 0.7047,-0.60029 1.29195,-1.08314 1.76177,-1.44856 0.49589,-0.33928 1.07009,-0.69163 1.72261,-1.05705 0.65248,-0.39149 1.34413,-0.73079 2.07496,-1.01791 0.73078,-0.31318 1.46159,-0.53503 2.1924,-0.66555 0.75689,-0.15659 1.46161,-0.15659 2.11412,0 0.78298,-1.07008 1.50073,-2.08799 2.15326,-3.05371 0.67857,-0.96568 1.40939,-1.97054 2.19242,-3.01457 1.07006,-1.40937 2.12713,-2.80573 3.17115,-4.18907 1.07009,-1.38328 2.15323,-2.75353 3.24947,-4.11077 0.75687,-0.96568 1.52682,-1.91833 2.30986,-2.85796 0.80907,-0.96567 1.64427,-1.87917 2.50561,-2.74051 0.0261,-0.0261 0.10438,-0.10439 0.2349,-0.2349 0.13047,-0.15656 0.26097,-0.30012 0.3915,-0.43065 0.15658,-0.13046 0.30012,-0.23488 0.43066,-0.31321 0.13047,-0.10439 0.2218,-0.13046 0.27404,-0.0784 m -29.63668,32.94477 c 0.9657,-0.73079 1.9836,-1.47475 3.05371,-2.23166 1.07009,-0.7569 2.1402,-1.57905 3.21031,-2.46648 1.07009,-0.88738 2.10105,-1.86613 3.09286,-2.93625 1.0179,-1.0701 1.9575,-2.1726 2.81882,-3.50372 -0.54812,-0.0261 -1.13537,0.0782 -1.76176,0.3132 -0.60031,0.2088 -1.18756,0.49592 -1.76176,0.8613 -0.57421,0.33932 -1.10927,0.70472 -1.60515,1.0962 -0.49592,0.39151 -0.9135,0.73081 -1.2528,1.01792 -0.26102,0.2088 -0.63946,0.6003 -1.13536,1.1745 -0.49592,0.5481 -1.03097,1.18756 -1.60516,1.91835 -0.5742,0.73082 -1.14841,1.52686 -1.72261,2.38817 -0.54812,0.83521 -0.99182,1.4613 -1.3311,2.27038"
         style="font-variant:normal;font-weight:bold;font-stretch:normal;fill:#f9f9f9;font-family:Streamster;-inkscape-font-specification:Streamster Bold"
         id="path3002"
         inkscape:connector-curvature="0"
         sodipodi:nodetypes="cccccsccccccccccccccccccccccsccccccccccccccccscccccssccccsccscc" />
    </g>
  </g>
</svg>
